HIERARCHY
ROOT Hips
{
	OFFSET 0.00 0.00 0.00
	CHANNELS 6 Xposition Yposition Zposition Xrotation Yrotation Zrotation
	JOINT Spine
	{
		OFFSET 0.00000 2.10617 3.15926
		CHANNELS 3 Xrotation Yrotation Zrotation
		JOINT Spine1
		{
			OFFSET 0.00000 0.73147 4.14835
			CHANNELS 3 Xrotation Yrotation Zrotation
			JOINT Spine2
			{
				OFFSET 0.00000 0.36713 4.19631
				CHANNELS 3 Xrotation Yrotation Zrotation
				JOINT Spine3
				{
					OFFSET 0.00000 0.00000 4.21234
					CHANNELS 3 Xrotation Yrotation Zrotation
					JOINT Neck
					{
						OFFSET 0.00000 -1.57963 11.05740
						CHANNELS 3 Xrotation Yrotation Zrotation
						JOINT Head
						{
							OFFSET 0.00000 -1.00577 5.70398
							CHANNELS 3 Xrotation Yrotation Zrotation
							End Site
							{
								OFFSET 0.00000 0.00000 6.81873
							}
						}
					}
					JOINT RightShoulder
					{
						OFFSET -1.28113 -2.13522 6.91810
						CHANNELS 3 Xrotation Yrotation Zrotation
						JOINT RightArm
						{
							OFFSET -6.36294 -0.00000 0.00000
							CHANNELS 3 Xrotation Yrotation Zrotation
							JOINT RightForeArm
							{
								OFFSET -10.12221 -0.00000 0.00000
								CHANNELS 3 Xrotation Yrotation Zrotation
								JOINT RightHand
								{
									OFFSET -10.76713 -0.00000 0.00000
									CHANNELS 3 Xrotation Yrotation Zrotation
									JOINT RightHandEnd
									{
										OFFSET -2.78915 -0.00000 0.00000
										CHANNELS 3 Xrotation Yrotation Zrotation
										End Site
										{
											OFFSET -2.78915 -0.00000 0.00000
										}
									}
									JOINT RightHandThumb1
									{
										OFFSET -1.11566 -1.85944 -0.74377
										CHANNELS 3 Xrotation Yrotation Zrotation
										End Site
										{
											OFFSET -2.69412 -0.72189 0.00000
										}
									}
								}
							}
						}
					}
					JOINT LeftShoulder
					{
						OFFSET 1.28113 -2.13522 6.91810
						CHANNELS 3 Xrotation Yrotation Zrotation
						JOINT LeftArm
						{
							OFFSET 6.36294 0.00000 0.00000
							CHANNELS 3 Xrotation Yrotation Zrotation
							JOINT LeftForeArm
							{
								OFFSET 10.12221 0.00000 0.00000
								CHANNELS 3 Xrotation Yrotation Zrotation
								JOINT LeftHand
								{
									OFFSET 10.76713 0.00000 0.00000
									CHANNELS 3 Xrotation Yrotation Zrotation
									JOINT LeftHandEnd
									{
										OFFSET 2.78915 0.00000 0.00000
										CHANNELS 3 Xrotation Yrotation Zrotation
										End Site
										{
											OFFSET 2.78915 0.00000 0.00000
										}
									}
									JOINT LeftHandThumb1
									{
										OFFSET 1.11566 -1.85944 -0.74377
										CHANNELS 3 Xrotation Yrotation Zrotation
										End Site
										{
											OFFSET 2.69412 -0.72189 0.00000
										}
									}
								}
							}
						}
					}
				}
			}
		}
	}
	JOINT RightUpLeg
	{
		OFFSET -3.80068 0.00000 -1.11031
		CHANNELS 3 Xrotation Yrotation Zrotation
		JOINT RightLeg
		{
			OFFSET 0.00000 0.00000 -17.00167
			CHANNELS 3 Xrotation Yrotation Zrotation
			JOINT RightFoot
			{
				OFFSET 0.00000 0.00000 -17.96841
				CHANNELS 3 Xrotation Yrotation Zrotation
				JOINT RightToeBase
				{
					OFFSET 0.00000 -5.07501 -1.84715
					CHANNELS 3 Xrotation Yrotation Zrotation
					End Site
					{
						OFFSET 0.00000 -3.07471 0.00000
					}
				}
			}
		}
	}
	JOINT LeftUpLeg
	{
		OFFSET 3.80068 0.00000 -1.11031
		CHANNELS 3 Xrotation Yrotation Zrotation
		JOINT LeftLeg
		{
			OFFSET 0.00000 0.00000 -17.00167
			CHANNELS 3 Xrotation Yrotation Zrotation
			JOINT LeftFoot
			{
				OFFSET 0.00000 0.00000 -17.96841
				CHANNELS 3 Xrotation Yrotation Zrotation
				JOINT LeftToeBase
				{
					OFFSET 0.00000 -5.07501 -1.84715
					CHANNELS 3 Xrotation Yrotation Zrotation
					End Site
					{
						OFFSET 0.00000 -3.07471 0.00000
					}
				}
			}
		}
	}
}
MOTION
Frames: 7
Frame Time: 0.008342
 5.3824 -27.8962 38.1276 6.2803 -0.3282 174.2028 -1.3409 2.4807 0.7426 -1.7276 0.1567 -0.1331 6.9531 -2.9244 -3.3045 2.9856 0.5425 -0.6365 6.0774 4.3686 -16.1410 -4.6337 -6.5781 -20.0677 10.5135 -14.5706 8.0255 29.0236 -50.2592 29.8800 0.0000 -0.0000 28.0620 -8.8829 6.4380 -1.5330 -0.0000 -0.0000 0.0000 0.0000 0.0000 0.0000 12.1633 12.5712 -7.0856 40.7630 48.3835 -42.4592 -0.0000 0.0000 -27.2161 -12.9608 -15.3569 8.0803 0.0000 0.0000 0.0000 -0.0000 -0.0000 0.0000 10.2310 2.7714 -23.0177 4.6640 0.0000 0.0000 -7.8262 -1.5791 6.5152 -0.0970 -0.0000 0.0000 10.1751 -3.1671 15.2558 5.7814 0.0000 0.0000 -12.9167 22.0232 10.1111 13.8964 -0.0000 -0.0000
 5.3787 -27.8990 38.1278 6.2734 -0.3206 174.2289 -1.3424 2.4848 0.7408 -1.7285 0.1587 -0.1325 6.9426 -2.9198 -3.3030 2.9840 0.5432 -0.6373 6.0761 4.3701 -16.1401 -4.6340 -6.5831 -20.0669 10.5067 -14.5747 8.0326 29.0996 -50.2461 29.9536 -0.0000 0.0000 27.9905 -8.9004 6.4056 -1.5436 -0.0000 -0.0000 -0.0000 0.0000 0.0000 -0.0000 12.1541 12.5830 -7.1010 40.7617 48.3789 -42.4714 -0.0000 0.0000 -27.2634 -12.9768 -15.3546 8.0644 0.0000 -0.0000 0.0000 -0.0000 0.0000 -0.0000 10.2210 2.7795 -23.0388 4.6661 0.0000 -0.0000 -7.8248 -1.5791 6.5113 -0.0960 0.0000 0.0000 10.1609 -3.1594 15.2326 5.7756 0.0000 0.0000 -12.9090 22.0172 10.1032 13.9025 0.0000 -0.0000
 5.3741 -27.9023 38.1282 6.2686 -0.3124 174.2618 -1.3406 2.4891 0.7396 -1.7280 0.1606 -0.1321 6.9275 -2.9130 -3.3008 2.9812 0.5439 -0.6378 6.0756 4.3719 -16.1386 -4.6359 -6.5885 -20.0662 10.5049 -14.5774 8.0412 29.1995 -50.2293 30.0568 0.0000 -0.0000 27.8921 -8.9232 6.3610 -1.5599 -0.0000 -0.0000 0.0000 0.0000 0.0000 0.0000 12.1448 12.5950 -7.1208 40.7606 48.3767 -42.4902 -0.0000 0.0000 -27.3219 -12.9940 -15.3501 8.0407 0.0000 -0.0000 0.0000 0.0000 -0.0000 -0.0000 10.2144 2.7879 -23.0606 4.6658 0.0000 0.0000 -7.8217 -1.5789 6.5018 -0.0944 -0.0000 0.0000 10.1491 -3.1506 15.2091 5.7654 -0.0000 0.0000 -12.8961 22.0108 10.0866 13.9090 -0.0000 0.0000
 5.3681 -27.9073 38.1286 6.2511 -0.2995 174.3035 -1.3489 2.4957 0.7358 -1.7297 0.1642 -0.1306 6.9119 -2.9056 -3.2968 2.9781 0.5448 -0.6391 6.0719 4.3759 -16.1369 -4.6330 -6.5982 -20.0658 10.5012 -14.5832 8.0500 29.3301 -50.2027 30.1905 -0.0000 0.0000 27.7634 -8.9548 6.3055 -1.5799 -0.0000 -0.0000 0.0000 -0.0000 0.0000 -0.0000 12.1323 12.6147 -7.1451 40.7609 48.3654 -42.5121 0.0000 -0.0000 -27.3914 -13.0166 -15.3460 8.0136 0.0000 0.0000 0.0000 -0.0000 -0.0000 -0.0000 10.1896 2.8016 -23.0900 4.6719 0.0000 -0.0000 -7.8203 -1.5785 6.4914 -0.0917 -0.0000 0.0000 10.1174 -3.1383 15.1720 5.7590 0.0000 0.0000 -12.8830 22.0000 10.0722 13.9153 0.0000 0.0000
 5.3612 -27.9125 38.1290 6.2398 -0.2859 174.3500 -1.3497 2.5023 0.7348 -1.7296 0.1685 -0.1310 6.8900 -2.8960 -3.2933 2.9745 0.5456 -0.6386 6.0686 4.3800 -16.1350 -4.6316 -6.6072 -20.0648 10.4984 -14.5871 8.0590 29.4915 -50.1721 30.3539 0.0000 -0.0000 27.6082 -8.9932 6.2386 -1.6075 -0.0000 -0.0000 0.0000 0.0000 0.0000 -0.0000 12.1186 12.6334 -7.1729 40.7650 48.3583 -42.5401 0.0000 0.0000 -27.4703 -13.0386 -15.3398 7.9804 0.0000 -0.0000 -0.0000 -0.0000 0.0000 0.0000 10.1728 2.8164 -23.1216 4.6752 0.0000 0.0000 -7.8174 -1.5788 6.4787 -0.0884 -0.0000 -0.0000 10.0943 -3.1236 15.1360 5.7458 -0.0000 -0.0000 -12.8637 21.9884 10.0496 13.9209 -0.0000 0.0000
 5.3535 -27.9184 38.1294 6.2246 -0.2712 174.4023 -1.3536 2.5099 0.7330 -1.7298 0.1723 -0.1306 6.8686 -2.8850 -3.2889 2.9689 0.5470 -0.6388 6.0639 4.3845 -16.1328 -4.6292 -6.6180 -20.0637 10.4990 -14.5913 8.0702 29.6756 -50.1362 30.5420 0.0000 0.0000 27.4270 -9.0362 6.1604 -1.6411 0.0000 -0.0000 -0.0000 0.0000 -0.0000 -0.0000 12.1050 12.6527 -7.2028 40.7743 48.3473 -42.5773 -0.0000 0.0000 -27.5529 -13.0604 -15.3320 7.9427 0.0000 -0.0000 0.0000 0.0000 -0.0000 0.0000 10.1510 2.8322 -23.1530 4.6792 -0.0000 0.0000 -7.8137 -1.5789 6.4606 -0.0846 0.0000 0.0000 10.0640 -3.1083 15.0971 5.7344 0.0000 -0.0000 -12.8423 21.9751 10.0221 13.9248 0.0000 0.0000
 5.3449 -27.9249 38.1298 6.2088 -0.2553 174.4584 -1.3555 2.5174 0.7289 -1.7301 0.1766 -0.1282 6.8428 -2.8725 -3.2817 2.9642 0.5480 -0.6404 6.0570 4.3912 -16.1299 -4.6248 -6.6298 -20.0635 10.5004 -14.5941 8.0799 29.8862 -50.0949 30.7560 -0.0000 -0.0000 27.2214 -9.0839 6.0735 -1.6801 -0.0000 0.0000 0.0000 0.0000 0.0000 0.0000 12.0929 12.6752 -7.2363 40.7848 48.3327 -42.6149 -0.0000 0.0000 -27.6415 -13.0844 -15.3231 7.9029 0.0000 -0.0000 0.0000 -0.0000 0.0000 0.0000 10.1277 2.8498 -23.1850 4.6842 -0.0000 -0.0000 -7.8098 -1.5794 6.4397 -0.0795 0.0000 -0.0000 10.0321 -3.0913 15.0570 5.7217 -0.0000 0.0000 -12.8178 21.9602 9.9902 13.9266 -0.0000 -0.0000
